<mxfile host="app.diagrams.net" agent="Mozilla/5.0 (Windows NT 10.0; Win64; x64) AppleWebKit/537.36 (KHTML, like Gecko) Chrome/136.0.0.0 Safari/537.36" version="27.0.8">
  <diagram name="第 1 页" id="95vUgSC7T32fL4YjxQwA">
    <mxGraphModel dx="827" dy="483" grid="1" gridSize="10" guides="1" tooltips="1" connect="1" arrows="1" fold="1" page="1" pageScale="1" pageWidth="827" pageHeight="1169" math="0" shadow="0">
      <root>
        <mxCell id="0" />
        <mxCell id="1" parent="0" />
        <mxCell id="3dc5REjuBmrsL4gXMFOv-6" value="" style="endArrow=none;html=1;rounded=0;strokeColor=default;align=center;verticalAlign=middle;fontFamily=Helvetica;fontSize=11;fontColor=default;labelBackgroundColor=default;edgeStyle=orthogonalEdgeStyle;" edge="1" parent="1">
          <mxGeometry width="50" height="50" relative="1" as="geometry">
            <mxPoint x="70" y="130" as="sourcePoint" />
            <mxPoint x="700" y="130" as="targetPoint" />
          </mxGeometry>
        </mxCell>
        <mxCell id="3dc5REjuBmrsL4gXMFOv-49" value="" style="group" vertex="1" connectable="0" parent="1">
          <mxGeometry x="380" y="50" width="90" height="80" as="geometry" />
        </mxCell>
        <mxCell id="3dc5REjuBmrsL4gXMFOv-5" style="edgeStyle=orthogonalEdgeStyle;rounded=0;orthogonalLoop=1;jettySize=auto;html=1;exitX=0.5;exitY=1;exitDx=0;exitDy=0;endArrow=none;startFill=0;" edge="1" parent="3dc5REjuBmrsL4gXMFOv-49" source="3dc5REjuBmrsL4gXMFOv-2">
          <mxGeometry relative="1" as="geometry">
            <mxPoint x="45" y="80" as="targetPoint" />
          </mxGeometry>
        </mxCell>
        <mxCell id="3dc5REjuBmrsL4gXMFOv-2" value="&lt;font style=&quot;font-size: 14px;&quot;&gt;系统管理员&lt;/font&gt;" style="rounded=0;whiteSpace=wrap;html=1;" vertex="1" parent="3dc5REjuBmrsL4gXMFOv-49">
          <mxGeometry width="90" height="30" as="geometry" />
        </mxCell>
        <mxCell id="3dc5REjuBmrsL4gXMFOv-12" value="&lt;font style=&quot;font-size: 14px;&quot;&gt;分销商管理&lt;/font&gt;" style="rounded=0;whiteSpace=wrap;html=1;container=0;" vertex="1" parent="1">
          <mxGeometry x="290" y="180" width="20" height="180" as="geometry" />
        </mxCell>
        <mxCell id="3dc5REjuBmrsL4gXMFOv-16" value="&lt;span style=&quot;font-size: 14px;&quot;&gt;匹配管理&lt;/span&gt;" style="rounded=0;whiteSpace=wrap;html=1;container=0;" vertex="1" parent="1">
          <mxGeometry x="366" y="180" width="20" height="180" as="geometry" />
        </mxCell>
        <mxCell id="3dc5REjuBmrsL4gXMFOv-7" value="" style="endArrow=none;html=1;rounded=0;strokeColor=default;align=center;verticalAlign=middle;fontFamily=Helvetica;fontSize=11;fontColor=default;labelBackgroundColor=default;edgeStyle=orthogonalEdgeStyle;" edge="1" parent="1">
          <mxGeometry width="50" height="50" relative="1" as="geometry">
            <mxPoint x="69.47" y="180" as="sourcePoint" />
            <mxPoint x="69.47" y="130" as="targetPoint" />
            <Array as="points">
              <mxPoint x="69.47" y="160" />
              <mxPoint x="69.47" y="160" />
            </Array>
          </mxGeometry>
        </mxCell>
        <mxCell id="3dc5REjuBmrsL4gXMFOv-10" value="&lt;font style=&quot;font-size: 14px;&quot;&gt;原材料供应商管理&lt;/font&gt;" style="rounded=0;whiteSpace=wrap;html=1;container=0;" vertex="1" parent="1">
          <mxGeometry x="60" y="180" width="20" height="180" as="geometry" />
        </mxCell>
        <mxCell id="3dc5REjuBmrsL4gXMFOv-11" value="&lt;font style=&quot;font-size: 14px;&quot;&gt;智能设备制造商管理&lt;/font&gt;" style="rounded=0;whiteSpace=wrap;html=1;container=0;" vertex="1" parent="1">
          <mxGeometry x="220" y="180" width="20" height="180" as="geometry" />
        </mxCell>
        <mxCell id="3dc5REjuBmrsL4gXMFOv-22" value="&lt;span style=&quot;font-size: 14px;&quot;&gt;订单管理&lt;/span&gt;" style="rounded=0;whiteSpace=wrap;html=1;container=0;" vertex="1" parent="1">
          <mxGeometry x="415" y="180" width="20" height="180" as="geometry" />
        </mxCell>
        <mxCell id="3dc5REjuBmrsL4gXMFOv-39" value="&lt;span style=&quot;font-size: 14px;&quot;&gt;共享仓储管理&lt;/span&gt;" style="rounded=0;whiteSpace=wrap;html=1;container=0;" vertex="1" parent="1">
          <mxGeometry x="690" y="180" width="20" height="180" as="geometry" />
        </mxCell>
        <mxCell id="3dc5REjuBmrsL4gXMFOv-42" value="&lt;span style=&quot;font-size: 14px;&quot;&gt;物流服务商管理&lt;/span&gt;" style="rounded=0;whiteSpace=wrap;html=1;container=0;" vertex="1" parent="1">
          <mxGeometry x="610" y="180" width="20" height="180" as="geometry" />
        </mxCell>
        <mxCell id="3dc5REjuBmrsL4gXMFOv-45" value="&lt;span style=&quot;font-size: 14px;&quot;&gt;维修服务商管理&lt;/span&gt;" style="rounded=0;whiteSpace=wrap;html=1;container=0;" vertex="1" parent="1">
          <mxGeometry x="540" y="180" width="20" height="180" as="geometry" />
        </mxCell>
        <mxCell id="3dc5REjuBmrsL4gXMFOv-48" value="&lt;span style=&quot;font-size: 14px;&quot;&gt;众创设计提案管理&lt;/span&gt;" style="rounded=0;whiteSpace=wrap;html=1;container=0;" vertex="1" parent="1">
          <mxGeometry x="480" y="180" width="20" height="180" as="geometry" />
        </mxCell>
        <mxCell id="3dc5REjuBmrsL4gXMFOv-52" value="" style="endArrow=none;html=1;rounded=0;strokeColor=default;align=center;verticalAlign=middle;fontFamily=Helvetica;fontSize=11;fontColor=default;labelBackgroundColor=default;edgeStyle=orthogonalEdgeStyle;" edge="1" parent="1">
          <mxGeometry width="50" height="50" relative="1" as="geometry">
            <mxPoint x="229.66" y="180" as="sourcePoint" />
            <mxPoint x="229.66" y="130" as="targetPoint" />
          </mxGeometry>
        </mxCell>
        <mxCell id="3dc5REjuBmrsL4gXMFOv-53" value="" style="endArrow=none;html=1;rounded=0;strokeColor=default;align=center;verticalAlign=middle;fontFamily=Helvetica;fontSize=11;fontColor=default;labelBackgroundColor=default;edgeStyle=orthogonalEdgeStyle;" edge="1" parent="1">
          <mxGeometry width="50" height="50" relative="1" as="geometry">
            <mxPoint x="374.65999999999997" y="180" as="sourcePoint" />
            <mxPoint x="374.65999999999997" y="130" as="targetPoint" />
          </mxGeometry>
        </mxCell>
        <mxCell id="3dc5REjuBmrsL4gXMFOv-54" value="" style="endArrow=none;html=1;rounded=0;strokeColor=default;align=center;verticalAlign=middle;fontFamily=Helvetica;fontSize=11;fontColor=default;labelBackgroundColor=default;edgeStyle=orthogonalEdgeStyle;" edge="1" parent="1">
          <mxGeometry width="50" height="50" relative="1" as="geometry">
            <mxPoint x="299.66" y="180" as="sourcePoint" />
            <mxPoint x="299.66" y="130" as="targetPoint" />
          </mxGeometry>
        </mxCell>
        <mxCell id="3dc5REjuBmrsL4gXMFOv-55" value="" style="endArrow=none;html=1;rounded=0;strokeColor=default;align=center;verticalAlign=middle;fontFamily=Helvetica;fontSize=11;fontColor=default;labelBackgroundColor=default;edgeStyle=orthogonalEdgeStyle;" edge="1" parent="1">
          <mxGeometry width="50" height="50" relative="1" as="geometry">
            <mxPoint x="489.65999999999997" y="180" as="sourcePoint" />
            <mxPoint x="489.65999999999997" y="130" as="targetPoint" />
          </mxGeometry>
        </mxCell>
        <mxCell id="3dc5REjuBmrsL4gXMFOv-56" value="" style="endArrow=none;html=1;rounded=0;strokeColor=default;align=center;verticalAlign=middle;fontFamily=Helvetica;fontSize=11;fontColor=default;labelBackgroundColor=default;edgeStyle=orthogonalEdgeStyle;" edge="1" parent="1">
          <mxGeometry width="50" height="50" relative="1" as="geometry">
            <mxPoint x="549.6600000000001" y="180" as="sourcePoint" />
            <mxPoint x="549.6600000000001" y="130" as="targetPoint" />
          </mxGeometry>
        </mxCell>
        <mxCell id="3dc5REjuBmrsL4gXMFOv-57" value="" style="endArrow=none;html=1;rounded=0;strokeColor=default;align=center;verticalAlign=middle;fontFamily=Helvetica;fontSize=11;fontColor=default;labelBackgroundColor=default;edgeStyle=orthogonalEdgeStyle;" edge="1" parent="1">
          <mxGeometry width="50" height="50" relative="1" as="geometry">
            <mxPoint x="423.65999999999997" y="180" as="sourcePoint" />
            <mxPoint x="423.65999999999997" y="130" as="targetPoint" />
          </mxGeometry>
        </mxCell>
        <mxCell id="3dc5REjuBmrsL4gXMFOv-64" value="" style="endArrow=none;html=1;rounded=0;strokeColor=default;align=center;verticalAlign=middle;fontFamily=Helvetica;fontSize=11;fontColor=default;labelBackgroundColor=default;edgeStyle=orthogonalEdgeStyle;" edge="1" parent="1">
          <mxGeometry width="50" height="50" relative="1" as="geometry">
            <mxPoint x="619.6600000000001" y="180" as="sourcePoint" />
            <mxPoint x="619.6600000000001" y="130" as="targetPoint" />
          </mxGeometry>
        </mxCell>
        <mxCell id="3dc5REjuBmrsL4gXMFOv-65" value="" style="endArrow=none;html=1;rounded=0;strokeColor=default;align=center;verticalAlign=middle;fontFamily=Helvetica;fontSize=11;fontColor=default;labelBackgroundColor=default;edgeStyle=orthogonalEdgeStyle;" edge="1" parent="1">
          <mxGeometry width="50" height="50" relative="1" as="geometry">
            <mxPoint x="699.6600000000001" y="180" as="sourcePoint" />
            <mxPoint x="699.6600000000001" y="130" as="targetPoint" />
          </mxGeometry>
        </mxCell>
        <mxCell id="3dc5REjuBmrsL4gXMFOv-83" value="" style="group" vertex="1" connectable="0" parent="1">
          <mxGeometry y="360" width="120" height="250" as="geometry" />
        </mxCell>
        <mxCell id="3dc5REjuBmrsL4gXMFOv-70" value="" style="endArrow=none;html=1;rounded=0;strokeColor=default;align=center;verticalAlign=middle;fontFamily=Helvetica;fontSize=11;fontColor=default;labelBackgroundColor=default;edgeStyle=orthogonalEdgeStyle;" edge="1" parent="3dc5REjuBmrsL4gXMFOv-83">
          <mxGeometry width="50" height="50" relative="1" as="geometry">
            <mxPoint x="69" y="40" as="sourcePoint" />
            <mxPoint x="69.22999999999999" as="targetPoint" />
          </mxGeometry>
        </mxCell>
        <mxCell id="3dc5REjuBmrsL4gXMFOv-71" value="" style="endArrow=none;html=1;rounded=0;strokeColor=default;align=center;verticalAlign=middle;fontFamily=Helvetica;fontSize=11;fontColor=default;labelBackgroundColor=default;edgeStyle=orthogonalEdgeStyle;" edge="1" parent="3dc5REjuBmrsL4gXMFOv-83">
          <mxGeometry width="50" height="50" relative="1" as="geometry">
            <mxPoint x="10" y="40" as="sourcePoint" />
            <mxPoint x="110" y="40" as="targetPoint" />
          </mxGeometry>
        </mxCell>
        <mxCell id="3dc5REjuBmrsL4gXMFOv-75" value="" style="endArrow=none;html=1;rounded=0;strokeColor=default;align=center;verticalAlign=middle;fontFamily=Helvetica;fontSize=11;fontColor=default;labelBackgroundColor=default;edgeStyle=orthogonalEdgeStyle;" edge="1" parent="3dc5REjuBmrsL4gXMFOv-83">
          <mxGeometry width="50" height="50" relative="1" as="geometry">
            <mxPoint x="10" y="70" as="sourcePoint" />
            <mxPoint x="10" y="40" as="targetPoint" />
          </mxGeometry>
        </mxCell>
        <mxCell id="3dc5REjuBmrsL4gXMFOv-76" value="" style="endArrow=none;html=1;rounded=0;strokeColor=default;align=center;verticalAlign=middle;fontFamily=Helvetica;fontSize=11;fontColor=default;labelBackgroundColor=default;edgeStyle=orthogonalEdgeStyle;" edge="1" parent="3dc5REjuBmrsL4gXMFOv-83">
          <mxGeometry width="50" height="50" relative="1" as="geometry">
            <mxPoint x="69.47" y="70" as="sourcePoint" />
            <mxPoint x="69.47" y="40" as="targetPoint" />
          </mxGeometry>
        </mxCell>
        <mxCell id="3dc5REjuBmrsL4gXMFOv-77" value="" style="endArrow=none;html=1;rounded=0;strokeColor=default;align=center;verticalAlign=middle;fontFamily=Helvetica;fontSize=11;fontColor=default;labelBackgroundColor=default;edgeStyle=orthogonalEdgeStyle;" edge="1" parent="3dc5REjuBmrsL4gXMFOv-83">
          <mxGeometry width="50" height="50" relative="1" as="geometry">
            <mxPoint x="110" y="70" as="sourcePoint" />
            <mxPoint x="110" y="40" as="targetPoint" />
          </mxGeometry>
        </mxCell>
        <mxCell id="3dc5REjuBmrsL4gXMFOv-78" value="&lt;font style=&quot;font-size: 14px;&quot;&gt;硬件管理&lt;/font&gt;" style="rounded=0;whiteSpace=wrap;html=1;container=0;" vertex="1" parent="3dc5REjuBmrsL4gXMFOv-83">
          <mxGeometry y="70" width="20" height="180" as="geometry" />
        </mxCell>
        <mxCell id="3dc5REjuBmrsL4gXMFOv-79" value="&lt;font style=&quot;font-size: 14px;&quot;&gt;接单管理&lt;/font&gt;" style="rounded=0;whiteSpace=wrap;html=1;container=0;" vertex="1" parent="3dc5REjuBmrsL4gXMFOv-83">
          <mxGeometry x="100" y="70" width="20" height="180" as="geometry" />
        </mxCell>
        <mxCell id="3dc5REjuBmrsL4gXMFOv-80" value="&lt;font style=&quot;font-size: 14px;&quot;&gt;供应商管理&lt;/font&gt;" style="rounded=0;whiteSpace=wrap;html=1;container=0;" vertex="1" parent="3dc5REjuBmrsL4gXMFOv-83">
          <mxGeometry x="60" y="70" width="20" height="180" as="geometry" />
        </mxCell>
        <mxCell id="3dc5REjuBmrsL4gXMFOv-84" value="" style="group" vertex="1" connectable="0" parent="1">
          <mxGeometry x="160" y="360" width="120" height="250" as="geometry" />
        </mxCell>
        <mxCell id="3dc5REjuBmrsL4gXMFOv-85" value="" style="endArrow=none;html=1;rounded=0;strokeColor=default;align=center;verticalAlign=middle;fontFamily=Helvetica;fontSize=11;fontColor=default;labelBackgroundColor=default;edgeStyle=orthogonalEdgeStyle;" edge="1" parent="3dc5REjuBmrsL4gXMFOv-84">
          <mxGeometry width="50" height="50" relative="1" as="geometry">
            <mxPoint x="69" y="40" as="sourcePoint" />
            <mxPoint x="69.22999999999999" as="targetPoint" />
          </mxGeometry>
        </mxCell>
        <mxCell id="3dc5REjuBmrsL4gXMFOv-86" value="" style="endArrow=none;html=1;rounded=0;strokeColor=default;align=center;verticalAlign=middle;fontFamily=Helvetica;fontSize=11;fontColor=default;labelBackgroundColor=default;edgeStyle=orthogonalEdgeStyle;" edge="1" parent="3dc5REjuBmrsL4gXMFOv-84">
          <mxGeometry width="50" height="50" relative="1" as="geometry">
            <mxPoint x="10" y="40" as="sourcePoint" />
            <mxPoint x="150" y="40" as="targetPoint" />
          </mxGeometry>
        </mxCell>
        <mxCell id="3dc5REjuBmrsL4gXMFOv-87" value="" style="endArrow=none;html=1;rounded=0;strokeColor=default;align=center;verticalAlign=middle;fontFamily=Helvetica;fontSize=11;fontColor=default;labelBackgroundColor=default;edgeStyle=orthogonalEdgeStyle;" edge="1" parent="3dc5REjuBmrsL4gXMFOv-84">
          <mxGeometry width="50" height="50" relative="1" as="geometry">
            <mxPoint x="10" y="70" as="sourcePoint" />
            <mxPoint x="10" y="40" as="targetPoint" />
          </mxGeometry>
        </mxCell>
        <mxCell id="3dc5REjuBmrsL4gXMFOv-88" value="" style="endArrow=none;html=1;rounded=0;strokeColor=default;align=center;verticalAlign=middle;fontFamily=Helvetica;fontSize=11;fontColor=default;labelBackgroundColor=default;edgeStyle=orthogonalEdgeStyle;" edge="1" parent="3dc5REjuBmrsL4gXMFOv-84">
          <mxGeometry width="50" height="50" relative="1" as="geometry">
            <mxPoint x="69.47" y="70" as="sourcePoint" />
            <mxPoint x="69.47" y="40" as="targetPoint" />
          </mxGeometry>
        </mxCell>
        <mxCell id="3dc5REjuBmrsL4gXMFOv-89" value="" style="endArrow=none;html=1;rounded=0;strokeColor=default;align=center;verticalAlign=middle;fontFamily=Helvetica;fontSize=11;fontColor=default;labelBackgroundColor=default;edgeStyle=orthogonalEdgeStyle;" edge="1" parent="3dc5REjuBmrsL4gXMFOv-84">
          <mxGeometry width="50" height="50" relative="1" as="geometry">
            <mxPoint x="110" y="70" as="sourcePoint" />
            <mxPoint x="110" y="40" as="targetPoint" />
          </mxGeometry>
        </mxCell>
        <mxCell id="3dc5REjuBmrsL4gXMFOv-90" value="&lt;font style=&quot;font-size: 14px;&quot;&gt;制造商管理&lt;/font&gt;" style="rounded=0;whiteSpace=wrap;html=1;container=0;" vertex="1" parent="3dc5REjuBmrsL4gXMFOv-84">
          <mxGeometry y="70" width="20" height="180" as="geometry" />
        </mxCell>
        <mxCell id="3dc5REjuBmrsL4gXMFOv-91" value="&lt;font style=&quot;font-size: 14px;&quot;&gt;智能设备分类管理&lt;/font&gt;" style="rounded=0;whiteSpace=wrap;html=1;container=0;" vertex="1" parent="3dc5REjuBmrsL4gXMFOv-84">
          <mxGeometry x="100" y="70" width="20" height="180" as="geometry" />
        </mxCell>
        <mxCell id="3dc5REjuBmrsL4gXMFOv-92" value="&lt;font style=&quot;font-size: 14px;&quot;&gt;智能设备单品管理&lt;/font&gt;" style="rounded=0;whiteSpace=wrap;html=1;container=0;" vertex="1" parent="3dc5REjuBmrsL4gXMFOv-84">
          <mxGeometry x="60" y="70" width="20" height="180" as="geometry" />
        </mxCell>
        <mxCell id="3dc5REjuBmrsL4gXMFOv-94" value="" style="endArrow=none;html=1;rounded=0;strokeColor=default;align=center;verticalAlign=middle;fontFamily=Helvetica;fontSize=11;fontColor=default;labelBackgroundColor=default;edgeStyle=orthogonalEdgeStyle;" edge="1" parent="1">
          <mxGeometry width="50" height="50" relative="1" as="geometry">
            <mxPoint x="310" y="430" as="sourcePoint" />
            <mxPoint x="310" y="400" as="targetPoint" />
          </mxGeometry>
        </mxCell>
        <mxCell id="3dc5REjuBmrsL4gXMFOv-95" value="&lt;font style=&quot;font-size: 14px;&quot;&gt;智能设备实例管理&lt;/font&gt;" style="rounded=0;whiteSpace=wrap;html=1;container=0;" vertex="1" parent="1">
          <mxGeometry x="300" y="430" width="20" height="180" as="geometry" />
        </mxCell>
      </root>
    </mxGraphModel>
  </diagram>
</mxfile>
